<svg width="100" height="100" viewBox="0 0 100 100" fill="none" xmlns="http://www.w3.org/2000/svg">
<rect x="7" y="45.1284" width="24.2521" height="57.9501" rx="4" transform="rotate(-45.6013 7 45.1284)" fill="url(#paint0_linear_2_2)"/>
<path d="M39.3617 76.3385C37.3887 74.4065 37.3555 71.2409 39.2875 69.2679L74.2414 33.5724C76.1734 31.5994 79.3391 31.5662 81.3121 33.4982L88.6025 40.6372C90.5755 42.5692 90.6087 45.7349 88.6767 47.7079L53.7228 83.4033C51.7908 85.3763 48.6251 85.4095 46.6521 83.4775L39.3617 76.3385Z" fill="url(#paint1_linear_2_2)"/>
<g filter="url(#filter0_d_2_2)">
<rect x="37.7892" y="37.1416" width="20" height="20" rx="3" transform="rotate(-44.9979 37.7892 37.1416)" fill="url(#paint2_linear_2_2)"/>
</g>
<defs>
<filter id="filter0_d_2_2" x="35.0319" y="24.2426" width="33.799" height="33.799" filterUnits="userSpaceOnUse" color-interpolation-filters="sRGB">
<feFlood flood-opacity="0" result="BackgroundImageFix"/>
<feColorMatrix in="SourceAlpha" type="matrix" values="0 0 0 0 0 0 0 0 0 0 0 0 0 0 0 0 0 0 127 0" result="hardAlpha"/>
<feOffset dy="4"/>
<feGaussianBlur stdDeviation="2"/>
<feComposite in2="hardAlpha" operator="out"/>
<feColorMatrix type="matrix" values="0 0 0 0 0 0 0 0 0 0 0 0 0 0 0 0 0 0 0.25 0"/>
<feBlend mode="normal" in2="BackgroundImageFix" result="effect1_dropShadow_2_2"/>
<feBlend mode="normal" in="SourceGraphic" in2="effect1_dropShadow_2_2" result="shape"/>
</filter>
<linearGradient id="paint0_linear_2_2" x1="19.1261" y1="45.1284" x2="19.1261" y2="103.078" gradientUnits="userSpaceOnUse">
<stop stop-color="#D3EE98"/>
<stop offset="1" stop-color="#A0D683"/>
</linearGradient>
<linearGradient id="paint1_linear_2_2" x1="56.7644" y1="51.4201" x2="71.1997" y2="65.5556" gradientUnits="userSpaceOnUse">
<stop stop-color="#D3EE98"/>
<stop offset="1" stop-color="#A0D683"/>
</linearGradient>
<linearGradient id="paint2_linear_2_2" x1="47.7892" y1="37.1416" x2="47.7892" y2="57.1416" gradientUnits="userSpaceOnUse">
<stop stop-color="#D3EE98"/>
<stop offset="1" stop-color="#72BF78"/>
</linearGradient>
</defs>
</svg>
